<?xml version="1.0" standalone="no"?>
<!DOCTYPE svg PUBLIC "-//W3C//DTD SVG 20010904//EN"
 "http://www.w3.org/TR/2001/REC-SVG-20010904/DTD/svg10.dtd">
<svg version="1.0" xmlns="http://www.w3.org/2000/svg"
 width="679.000000pt" height="679.000000pt" viewBox="0 0 679.000000 679.000000"
 preserveAspectRatio="xMidYMid meet">
<metadata>
Created by potrace 1.11, written by Peter Selinger 2001-2013
</metadata>
<g transform="translate(0.000000,679.000000) scale(0.100000,-0.100000)"
fill="#000000" stroke="none">
<path d="M3419 6667 c-119 -34 -208 -151 -209 -275 0 -74 15 -115 61 -161 43
-43 86 -61 144 -61 55 0 93 18 129 61 23 27 27 39 24 88 -2 42 -7 56 -18 56
-11 0 -15 -12 -16 -46 -3 -84 -53 -126 -139 -117 -113 13 -176 131 -135 253
20 59 101 141 162 161 172 57 384 -108 428 -334 13 -66 9 -173 -9 -232 -19
-59 -20 -60 -86 -44 -201 48 -489 70 -701 54 -386 -29 -665 -150 -894 -386
-184 -190 -306 -423 -384 -730 -29 -115 -56 -265 -56 -311 0 -29 -3 -33 -37
-38 -81 -13 -100 -18 -149 -40 -99 -44 -171 -132 -200 -245 -21 -82 -15 -262
10 -335 53 -151 196 -263 358 -282 32 -4 49 -11 52 -22 43 -150 61 -196 124
-324 8 -16 -175 83 -248 134 -41 29 -107 85 -146 125 -58 59 -77 85 -99 143
-49 130 -139 158 -193 59 -36 -64 -35 -64 -78 -34 -46 31 -101 34 -134 8 -27
-22 -38 -98 -22 -155 l10 -37 -52 0 c-64 0 -113 -16 -126 -40 -25 -48 1 -126
57 -170 l25 -20 -26 -31 c-29 -35 -32 -64 -12 -114 24 -56 63 -69 193 -68
l113 2 96 -82 c432 -366 628 -501 844 -577 36 -13 66 -24 68 -25 1 -1 -11 -58
-27 -126 -30 -125 -55 -276 -66 -403 l-7 -68 -36 6 c-137 22 -302 -77 -371
-224 -22 -47 -26 -68 -25 -145 1 -202 97 -406 283 -598 49 -51 92 -103 96
-117 18 -60 77 -93 149 -84 l46 7 19 -45 c46 -108 116 -150 351 -211 140 -36
167 -40 285 -41 154 -1 209 14 278 75 l45 39 122 0 122 0 30 -30 c91 -91 245
-112 477 -64 167 34 298 77 358 117 37 24 55 47 78 94 l30 62 62 -2 c74 -2
110 19 133 79 9 22 51 75 98 123 185 189 282 395 282 600 0 74 -4 94 -29 148
-56 118 -174 203 -301 218 l-59 7 -7 46 c-13 95 -45 240 -79 359 -19 67 -35
126 -35 131 0 4 26 16 58 26 200 62 461 227 841 534 l124 99 111 -5 c91 -4
118 -2 144 12 63 33 84 127 37 171 l-26 23 30 21 c59 42 88 121 61 171 -13 24
-62 40 -125 40 l-52 0 15 55 c20 72 6 127 -39 151 -36 18 -67 13 -117 -21
l-35 -24 -33 53 c-42 66 -72 84 -113 67 -41 -18 -66 -48 -91 -111 -26 -67
-129 -176 -238 -251 -74 -51 -296 -163 -312 -157 -5 2 6 28 25 58 44 70 90
186 106 270 7 36 16 69 20 73 4 5 40 15 80 23 187 35 312 146 355 313 23 93
16 275 -15 353 -47 120 -162 206 -306 228 -38 6 -73 14 -76 18 -3 4 -11 53
-18 109 -15 124 -58 308 -101 423 -145 393 -439 682 -829 815 -73 25 -71 21
-47 110 59 220 -45 466 -237 559 -83 41 -160 52 -228 33z m81 -648 c118 -13
290 -50 290 -61 0 -22 -68 -94 -123 -129 -73 -47 -161 -77 -291 -98 -74 -12
-101 -21 -101 -31 0 -20 92 -17 195 6 150 32 280 112 355 217 l20 28 74 -26
c185 -63 348 -162 486 -297 394 -380 527 -1037 391 -1934 -69 -457 -377 -702
-991 -789 -254 -36 -664 -42 -920 -14 -399 43 -666 149 -848 337 -207 212
-297 528 -297 1048 0 601 150 1066 446 1379 209 220 523 353 899 378 75 6 319
-3 415 -14z m-1794 -1509 c-18 -154 -4 -543 25 -704 6 -32 8 -61 5 -64 -9 -9
-107 17 -164 43 -139 64 -212 199 -212 391 0 215 89 337 280 380 30 7 59 13
64 13 5 1 6 -26 2 -59z m3268 45 c132 -28 220 -105 257 -225 18 -61 21 -88 17
-183 -4 -76 -11 -127 -23 -157 -56 -137 -162 -219 -325 -248 l-53 -10 8 72
c24 239 32 384 31 564 -1 133 2 202 9 202 5 0 41 -7 79 -15z m-3672 -735 c14
-10 35 -47 48 -82 19 -52 38 -78 108 -151 47 -48 118 -109 157 -136 65 -45
240 -139 290 -155 11 -4 38 -30 60 -57 49 -62 163 -156 248 -203 267 -149 660
-217 1177 -203 572 16 942 120 1176 330 35 32 77 56 139 80 281 108 521 287
571 426 23 65 66 106 95 90 11 -5 34 -39 52 -75 17 -35 36 -64 42 -64 7 0 22
11 34 24 30 32 85 58 106 50 37 -15 41 -84 8 -161 -7 -18 -13 -37 -13 -43 0
-6 30 -10 74 -10 98 0 126 -11 126 -48 0 -38 -27 -72 -90 -112 -27 -18 -50
-36 -50 -41 0 -4 20 -17 45 -28 39 -17 45 -24 45 -51 0 -20 -9 -40 -26 -57
-25 -25 -28 -26 -137 -20 -61 2 -121 1 -132 -3 -11 -5 -91 -65 -178 -135 -230
-183 -333 -258 -478 -346 -118 -71 -288 -147 -366 -164 -20 -4 -33 -13 -33
-22 0 -8 16 -66 35 -129 33 -110 76 -299 90 -396 6 -46 5 -48 -22 -54 -148
-36 -317 -195 -400 -376 -18 -38 -35 -60 -48 -63 -47 -10 -384 -31 -649 -40
-172 -6 -597 10 -770 30 -70 7 -129 15 -130 17 -2 2 -21 38 -44 81 -83 156
-174 251 -300 314 l-73 37 6 65 c14 145 39 293 71 421 18 74 30 137 26 141 -4
3 -43 18 -87 33 -195 67 -448 235 -760 506 -55 48 -122 103 -148 123 l-49 37
-106 -2 c-126 -2 -147 3 -168 44 -23 45 -12 75 36 89 22 7 40 18 40 25 0 7
-20 27 -44 43 -58 40 -86 77 -86 112 0 41 29 52 117 47 87 -6 94 1 69 62 -22
57 -21 115 4 140 20 20 21 20 58 1 21 -11 44 -27 52 -36 34 -41 48 -38 76 17
26 52 61 98 74 98 4 0 18 -9 32 -20z m801 -2002 c170 -66 312 -243 396 -497
17 -52 30 -95 29 -96 -2 -2 -12 1 -24 5 -14 6 -25 26 -37 67 -17 63 -67 126
-114 144 -97 37 -184 -23 -186 -127 0 -34 -4 -44 -17 -44 -9 0 -29 -13 -44
-29 -21 -22 -28 -40 -30 -79 -2 -41 -8 -54 -32 -75 -25 -22 -29 -32 -28 -75 0
-28 6 -58 13 -66 11 -13 10 -19 -10 -36 -13 -10 -27 -19 -30 -20 -15 0 -148
151 -195 221 -128 192 -176 417 -114 538 31 62 104 136 158 163 83 40 173 42
265 6z m2634 -9 c133 -64 202 -195 182 -349 -22 -174 -112 -347 -266 -509
l-67 -70 -23 24 c-20 19 -22 27 -14 44 6 11 11 41 11 66 0 39 -5 52 -28 74
-23 21 -30 38 -34 81 -4 42 -11 59 -32 77 -15 13 -33 23 -40 23 -9 0 -15 19
-18 56 -7 77 -44 116 -120 121 -40 3 -60 -1 -84 -16 -46 -28 -83 -81 -96 -139
-9 -36 -19 -54 -35 -61 -28 -13 -28 -10 -2 74 71 232 209 420 364 496 114 56
197 58 302 8z m-2387 -414 c37 -19 82 -95 78 -131 -2 -20 -12 -29 -41 -39 -21
-7 -47 -21 -58 -31 -45 -40 -109 20 -117 110 -4 48 -1 57 21 80 30 30 73 34
117 11z m1991 -14 c20 -21 29 -39 29 -62 0 -44 -35 -113 -65 -129 -21 -11 -32
-9 -94 21 -68 33 -71 35 -65 64 9 46 36 87 74 112 46 32 85 30 121 -6z m-1625
-6 c322 -28 829 -29 1134 0 183 17 203 17 197 -2 -3 -10 -15 -54 -27 -98 -21
-75 -25 -82 -72 -115 -27 -19 -74 -63 -105 -98 -64 -73 -80 -82 -188 -112
-203 -56 -283 -146 -273 -306 l4 -64 -97 0 -98 0 6 53 c11 106 -48 222 -136
266 -20 10 -76 31 -126 46 -123 37 -141 48 -214 127 -35 38 -83 82 -107 99
-24 16 -44 38 -44 47 0 9 -11 52 -24 95 -21 68 -22 77 -7 77 9 0 88 -7 177
-15z m-521 -165 c3 -11 22 -32 41 -48 l35 -29 -18 -31 c-14 -25 -25 -32 -50
-32 -56 0 -89 43 -84 112 3 42 64 65 76 28z m2249 -2 c41 -58 1 -138 -68 -138
-28 0 -38 6 -53 32 l-19 32 46 47 c51 52 72 58 94 27z m-1916 -35 c39 -19 88
-58 154 -124 103 -101 110 -106 268 -153 95 -28 150 -66 180 -126 59 -116 19
-227 -102 -281 -47 -21 -67 -23 -178 -23 -112 1 -141 6 -281 42 -177 46 -244
75 -287 127 -117 143 -50 472 112 546 54 25 67 24 134 -8z m1683 -8 c51 -33
94 -101 121 -188 16 -54 19 -87 16 -160 -7 -164 -56 -224 -228 -277 -135 -42
-324 -80 -400 -80 -239 0 -357 136 -271 313 30 62 74 91 196 129 137 42 148
49 245 147 145 146 229 177 321 116z m-2091 -110 c7 -8 30 -20 51 -25 36 -10
39 -13 33 -38 -13 -53 -23 -62 -64 -62 -53 0 -80 27 -80 78 0 55 32 81 60 47z
m2384 -1 c42 -41 -2 -124 -66 -124 -44 0 -55 9 -63 50 -6 34 -5 36 47 61 67
32 64 32 82 13z m-2338 -185 c8 -6 14 -29 14 -51 0 -35 -3 -40 -35 -53 -40
-17 -75 -8 -99 27 -21 30 -20 74 2 88 20 12 99 5 118 -11z m2368 5 c21 -20 20
-42 -3 -80 -22 -36 -63 -48 -101 -31 -22 11 -25 19 -25 62 0 44 3 50 25 56 44
12 88 9 104 -7z"/>
<path d="M2610 4552 c-19 -9 -45 -33 -58 -52 -20 -29 -23 -44 -20 -94 4 -54 8
-62 46 -97 37 -35 47 -39 93 -39 95 0 150 55 151 152 0 110 -113 180 -212 130z
m67 -60 c7 -31 -7 -56 -36 -60 -48 -7 -70 53 -30 81 28 20 58 10 66 -21z"/>
<path d="M3920 4551 c-38 -20 -80 -89 -80 -130 1 -44 37 -109 72 -131 69 -42
165 -18 209 52 27 44 22 122 -11 168 -41 58 -125 77 -190 41z m61 -40 c20 -16
22 -23 14 -47 -7 -20 -18 -30 -35 -32 -50 -5 -75 43 -41 77 26 26 33 26 62 2z"/>
<path d="M3110 3848 c-88 -12 -164 -48 -184 -87 -20 -37 -20 -109 -2 -177 70
-264 341 -375 602 -247 128 62 236 202 238 308 1 86 -39 127 -162 165 -129 40
-356 58 -492 38z m296 -152 c99 -26 264 -133 264 -171 0 -8 -11 -23 -26 -34
-14 -11 -25 -23 -24 -26 2 -11 -72 -66 -122 -91 -27 -13 -48 -22 -48 -20 0 3
-16 -2 -35 -10 -56 -23 -234 -16 -218 9 3 6 1 7 -5 3 -34 -21 -156 84 -196
167 -46 97 -47 93 39 133 42 19 95 39 118 44 67 13 198 11 253 -4z"/>
<path d="M3550 3430 c-9 -6 -10 -10 -3 -10 6 0 15 5 18 10 8 12 4 12 -15 0z"/>
<path d="M3282 1598 c2 -39 7 -53 18 -53 11 0 16 14 18 53 3 47 1 52 -18 52
-19 0 -21 -5 -18 -52z"/>
</g>
</svg>
